solid Created by Gmsh
facet normal -1 0 0
  outer loop
    vertex -0.24 -0.25 0
    vertex -0.24 -0.25 0.04
    vertex -0.24 -0.21875 0.02
  endloop
endfacet
facet normal -1 0 -0
  outer loop
    vertex -0.24 -0.1875 0.04
    vertex -0.24 -0.1875 0
    vertex -0.24 -0.21875 0.02
  endloop
endfacet
facet normal -1 0 0
  outer loop
    vertex -0.24 -0.1875 0
    vertex -0.24 -0.1875 0.04
    vertex -0.24 -0.15625 0.02
  endloop
endfacet
facet normal -1 0 -0
  outer loop
    vertex -0.24 -0.125 0.04
    vertex -0.24 -0.125 0
    vertex -0.24 -0.15625 0.02
  endloop
endfacet
facet normal -1 0 -0
  outer loop
    vertex -0.24 0.25 0.04
    vertex -0.24 0.25 0
    vertex -0.24 0.21875 0.02
  endloop
endfacet
facet normal -1 0 -0
  outer loop
    vertex -0.24 0.125 0.04
    vertex -0.24 0.125 0
    vertex -0.24 0.09375 0.02
  endloop
endfacet
facet normal -1 0 0
  outer loop
    vertex -0.24 0.125 0
    vertex -0.24 0.125 0.04
    vertex -0.24 0.15625 0.02
  endloop
endfacet
facet normal -1 0 0
  outer loop
    vertex -0.24 -0.125 0
    vertex -0.24 -0.125 0.04
    vertex -0.24 -0.09375 0.02
  endloop
endfacet
facet normal -1 0 -0
  outer loop
    vertex -0.24 -0.0625 0.04
    vertex -0.24 -0.0625 0
    vertex -0.24 -0.09375 0.02
  endloop
endfacet
facet normal -1 0 0
  outer loop
    vertex -0.24 2.77556e-16 0
    vertex -0.24 2.77556e-16 0.04
    vertex -0.24 0.03125 0.02
  endloop
endfacet
facet normal -1 0 0
  outer loop
    vertex -0.24 -0.0625 0
    vertex -0.24 -0.0625 0.04
    vertex -0.24 -0.03125 0.02
  endloop
endfacet
facet normal -1 0 -0
  outer loop
    vertex -0.24 2.77556e-16 0.04
    vertex -0.24 2.77556e-16 0
    vertex -0.24 -0.03125 0.02
  endloop
endfacet
facet normal -1 0 -0
  outer loop
    vertex -0.24 0.1875 0.04
    vertex -0.24 0.1875 0
    vertex -0.24 0.15625 0.02
  endloop
endfacet
facet normal -1 0 0
  outer loop
    vertex -0.24 0.0625 0
    vertex -0.24 0.0625 0.04
    vertex -0.24 0.09375 0.02
  endloop
endfacet
facet normal -1 0 -0
  outer loop
    vertex -0.24 0.0625 0.04
    vertex -0.24 0.0625 0
    vertex -0.24 0.03125 0.02
  endloop
endfacet
facet normal -1 0 0
  outer loop
    vertex -0.24 0.1875 0
    vertex -0.24 0.1875 0.04
    vertex -0.24 0.21875 0.02
  endloop
endfacet
facet normal -1 0 0
  outer loop
    vertex -0.24 -0.25 0.04
    vertex -0.24 -0.1875 0.04
    vertex -0.24 -0.21875 0.02
  endloop
endfacet
facet normal -1 0 0
  outer loop
    vertex -0.24 -0.1875 0
    vertex -0.24 -0.25 0
    vertex -0.24 -0.21875 0.02
  endloop
endfacet
facet normal -1 0 0
  outer loop
    vertex -0.24 0.1875 0.04
    vertex -0.24 0.25 0.04
    vertex -0.24 0.21875 0.02
  endloop
endfacet
facet normal -1 0 0
  outer loop
    vertex -0.24 0.25 0
    vertex -0.24 0.1875 0
    vertex -0.24 0.21875 0.02
  endloop
endfacet
facet normal -1 0 0
  outer loop
    vertex -0.24 -0.1875 0.04
    vertex -0.24 -0.125 0.04
    vertex -0.24 -0.15625 0.02
  endloop
endfacet
facet normal -1 0 0
  outer loop
    vertex -0.24 -0.125 0.04
    vertex -0.24 -0.0625 0.04
    vertex -0.24 -0.09375 0.02
  endloop
endfacet
facet normal -1 0 0
  outer loop
    vertex -0.24 -0.0625 0.04
    vertex -0.24 2.77556e-16 0.04
    vertex -0.24 -0.03125 0.02
  endloop
endfacet
facet normal -1 0 0
  outer loop
    vertex -0.24 2.77556e-16 0.04
    vertex -0.24 0.0625 0.04
    vertex -0.24 0.03125 0.02
  endloop
endfacet
facet normal -1 0 0
  outer loop
    vertex -0.24 0.0625 0.04
    vertex -0.24 0.125 0.04
    vertex -0.24 0.09375 0.02
  endloop
endfacet
facet normal -1 0 0
  outer loop
    vertex -0.24 0.125 0.04
    vertex -0.24 0.1875 0.04
    vertex -0.24 0.15625 0.02
  endloop
endfacet
facet normal -1 0 0
  outer loop
    vertex -0.24 -0.125 0
    vertex -0.24 -0.1875 0
    vertex -0.24 -0.15625 0.02
  endloop
endfacet
facet normal -1 0 0
  outer loop
    vertex -0.24 -0.0625 0
    vertex -0.24 -0.125 0
    vertex -0.24 -0.09375 0.02
  endloop
endfacet
facet normal -1 0 0
  outer loop
    vertex -0.24 2.77556e-16 0
    vertex -0.24 -0.0625 0
    vertex -0.24 -0.03125 0.02
  endloop
endfacet
facet normal -1 0 0
  outer loop
    vertex -0.24 0.0625 0
    vertex -0.24 2.77556e-16 0
    vertex -0.24 0.03125 0.02
  endloop
endfacet
facet normal -1 0 0
  outer loop
    vertex -0.24 0.125 0
    vertex -0.24 0.0625 0
    vertex -0.24 0.09375 0.02
  endloop
endfacet
facet normal -1 0 0
  outer loop
    vertex -0.24 0.1875 0
    vertex -0.24 0.125 0
    vertex -0.24 0.15625 0.02
  endloop
endfacet
facet normal 1 0 0
  outer loop
    vertex 0.26 -0.25 0
    vertex 0.26 -0.21875 0.02
    vertex 0.26 -0.25 0.04
  endloop
endfacet
facet normal 1 0 0
  outer loop
    vertex 0.26 -0.1875 0.04
    vertex 0.26 -0.21875 0.02
    vertex 0.26 -0.1875 0
  endloop
endfacet
facet normal 1 0 0
  outer loop
    vertex 0.26 -0.1875 0
    vertex 0.26 -0.15625 0.02
    vertex 0.26 -0.1875 0.04
  endloop
endfacet
facet normal 1 0 0
  outer loop
    vertex 0.26 -0.125 0.04
    vertex 0.26 -0.15625 0.02
    vertex 0.26 -0.125 0
  endloop
endfacet
facet normal 1 0 0
  outer loop
    vertex 0.26 0.25 0.04
    vertex 0.26 0.21875 0.02
    vertex 0.26 0.25 0
  endloop
endfacet
facet normal 1 0 0
  outer loop
    vertex 0.26 0.125 0.04
    vertex 0.26 0.09375 0.02
    vertex 0.26 0.125 0
  endloop
endfacet
facet normal 1 0 0
  outer loop
    vertex 0.26 -0.125 0
    vertex 0.26 -0.09375 0.02
    vertex 0.26 -0.125 0.04
  endloop
endfacet
facet normal 1 0 0
  outer loop
    vertex 0.26 -0.0625 0.04
    vertex 0.26 -0.09375 0.02
    vertex 0.26 -0.0625 0
  endloop
endfacet
facet normal 1 0 0
  outer loop
    vertex 0.26 2.77556e-16 0
    vertex 0.26 0.03125 0.02
    vertex 0.26 2.77556e-16 0.04
  endloop
endfacet
facet normal 1 0 0
  outer loop
    vertex 0.26 0.125 0
    vertex 0.26 0.15625 0.02
    vertex 0.26 0.125 0.04
  endloop
endfacet
facet normal 1 0 0
  outer loop
    vertex 0.26 -0.0625 0
    vertex 0.26 -0.03125 0.02
    vertex 0.26 -0.0625 0.04
  endloop
endfacet
facet normal 1 0 0
  outer loop
    vertex 0.26 2.77556e-16 0.04
    vertex 0.26 -0.03125 0.02
    vertex 0.26 2.77556e-16 0
  endloop
endfacet
facet normal 1 0 0
  outer loop
    vertex 0.26 0.1875 0.04
    vertex 0.26 0.15625 0.02
    vertex 0.26 0.1875 0
  endloop
endfacet
facet normal 1 0 0
  outer loop
    vertex 0.26 0.0625 0
    vertex 0.26 0.09375 0.02
    vertex 0.26 0.0625 0.04
  endloop
endfacet
facet normal 1 0 0
  outer loop
    vertex 0.26 0.0625 0.04
    vertex 0.26 0.03125 0.02
    vertex 0.26 0.0625 0
  endloop
endfacet
facet normal 1 0 0
  outer loop
    vertex 0.26 0.1875 0
    vertex 0.26 0.21875 0.02
    vertex 0.26 0.1875 0.04
  endloop
endfacet
facet normal 1 -0 0
  outer loop
    vertex 0.26 -0.25 0.04
    vertex 0.26 -0.21875 0.02
    vertex 0.26 -0.1875 0.04
  endloop
endfacet
facet normal 1 0 0
  outer loop
    vertex 0.26 -0.1875 0
    vertex 0.26 -0.21875 0.02
    vertex 0.26 -0.25 0
  endloop
endfacet
facet normal 1 -0 0
  outer loop
    vertex 0.26 0.1875 0.04
    vertex 0.26 0.21875 0.02
    vertex 0.26 0.25 0.04
  endloop
endfacet
facet normal 1 0 0
  outer loop
    vertex 0.26 0.25 0
    vertex 0.26 0.21875 0.02
    vertex 0.26 0.1875 0
  endloop
endfacet
facet normal 1 -0 0
  outer loop
    vertex 0.26 -0.1875 0.04
    vertex 0.26 -0.15625 0.02
    vertex 0.26 -0.125 0.04
  endloop
endfacet
facet normal 1 -0 0
  outer loop
    vertex 0.26 -0.125 0.04
    vertex 0.26 -0.09375 0.02
    vertex 0.26 -0.0625 0.04
  endloop
endfacet
facet normal 1 -0 0
  outer loop
    vertex 0.26 -0.0625 0.04
    vertex 0.26 -0.03125 0.02
    vertex 0.26 2.77556e-16 0.04
  endloop
endfacet
facet normal 1 -0 0
  outer loop
    vertex 0.26 2.77556e-16 0.04
    vertex 0.26 0.03125 0.02
    vertex 0.26 0.0625 0.04
  endloop
endfacet
facet normal 1 -0 0
  outer loop
    vertex 0.26 0.0625 0.04
    vertex 0.26 0.09375 0.02
    vertex 0.26 0.125 0.04
  endloop
endfacet
facet normal 1 -0 0
  outer loop
    vertex 0.26 0.125 0.04
    vertex 0.26 0.15625 0.02
    vertex 0.26 0.1875 0.04
  endloop
endfacet
facet normal 1 0 0
  outer loop
    vertex 0.26 -0.125 0
    vertex 0.26 -0.15625 0.02
    vertex 0.26 -0.1875 0
  endloop
endfacet
facet normal 1 0 0
  outer loop
    vertex 0.26 -0.0625 0
    vertex 0.26 -0.09375 0.02
    vertex 0.26 -0.125 0
  endloop
endfacet
facet normal 1 0 0
  outer loop
    vertex 0.26 2.77556e-16 0
    vertex 0.26 -0.03125 0.02
    vertex 0.26 -0.0625 0
  endloop
endfacet
facet normal 1 0 0
  outer loop
    vertex 0.26 0.0625 0
    vertex 0.26 0.03125 0.02
    vertex 0.26 2.77556e-16 0
  endloop
endfacet
facet normal 1 0 0
  outer loop
    vertex 0.26 0.125 0
    vertex 0.26 0.09375 0.02
    vertex 0.26 0.0625 0
  endloop
endfacet
facet normal 1 0 0
  outer loop
    vertex 0.26 0.1875 0
    vertex 0.26 0.15625 0.02
    vertex 0.26 0.125 0
  endloop
endfacet
facet normal 0 -1 0
  outer loop
    vertex -0.24 -0.25 0.04
    vertex -0.24 -0.25 0
    vertex -0.20875 -0.25 0.02
  endloop
endfacet
facet normal 0 -1 0
  outer loop
    vertex -0.1775 -0.25 0
    vertex -0.1775 -0.25 0.04
    vertex -0.20875 -0.25 0.02
  endloop
endfacet
facet normal 0 -1 0
  outer loop
    vertex -0.1775 -0.25 0.04
    vertex -0.1775 -0.25 0
    vertex -0.14625 -0.25 0.02
  endloop
endfacet
facet normal 0 -1 0
  outer loop
    vertex 0.26 -0.25 0
    vertex 0.26 -0.25 0.04
    vertex 0.22875 -0.25 0.02
  endloop
endfacet
facet normal 0 -1 0
  outer loop
    vertex -0.115 -0.25 0
    vertex -0.115 -0.25 0.04
    vertex -0.14625 -0.25 0.02
  endloop
endfacet
facet normal 0 -1 0
  outer loop
    vertex 0.135 -0.25 0
    vertex 0.135 -0.25 0.04
    vertex 0.10375 -0.25 0.02
  endloop
endfacet
facet normal 0 -1 0
  outer loop
    vertex 0.135 -0.25 0.04
    vertex 0.135 -0.25 0
    vertex 0.16625 -0.25 0.02
  endloop
endfacet
facet normal 0 -1 0
  outer loop
    vertex -0.115 -0.25 0.04
    vertex -0.115 -0.25 0
    vertex -0.08375 -0.25 0.02
  endloop
endfacet
facet normal 0 -1 0
  outer loop
    vertex -0.0525 -0.25 0
    vertex -0.0525 -0.25 0.04
    vertex -0.08375 -0.25 0.02
  endloop
endfacet
facet normal 0 -1 0
  outer loop
    vertex 0.01 -0.25 0.04
    vertex 0.01 -0.25 0
    vertex 0.04125 -0.25 0.02
  endloop
endfacet
facet normal 0 -1 0
  outer loop
    vertex -0.0525 -0.25 0.04
    vertex -0.0525 -0.25 0
    vertex -0.02125 -0.25 0.02
  endloop
endfacet
facet normal 0 -1 0
  outer loop
    vertex 0.01 -0.25 0
    vertex 0.01 -0.25 0.04
    vertex -0.02125 -0.25 0.02
  endloop
endfacet
facet normal 0 -1 0
  outer loop
    vertex 0.1975 -0.25 0
    vertex 0.1975 -0.25 0.04
    vertex 0.16625 -0.25 0.02
  endloop
endfacet
facet normal 0 -1 0
  outer loop
    vertex 0.0725 -0.25 0.04
    vertex 0.0725 -0.25 0
    vertex 0.10375 -0.25 0.02
  endloop
endfacet
facet normal 0 -1 0
  outer loop
    vertex 0.0725 -0.25 0
    vertex 0.0725 -0.25 0.04
    vertex 0.04125 -0.25 0.02
  endloop
endfacet
facet normal 0 -1 0
  outer loop
    vertex 0.1975 -0.25 0.04
    vertex 0.1975 -0.25 0
    vertex 0.22875 -0.25 0.02
  endloop
endfacet
facet normal -0 -1 0
  outer loop
    vertex -0.1775 -0.25 0.04
    vertex -0.24 -0.25 0.04
    vertex -0.20875 -0.25 0.02
  endloop
endfacet
facet normal 0 -1 0
  outer loop
    vertex -0.24 -0.25 0
    vertex -0.1775 -0.25 0
    vertex -0.20875 -0.25 0.02
  endloop
endfacet
facet normal -0 -1 0
  outer loop
    vertex 0.26 -0.25 0.04
    vertex 0.1975 -0.25 0.04
    vertex 0.22875 -0.25 0.02
  endloop
endfacet
facet normal 0 -1 0
  outer loop
    vertex 0.1975 -0.25 0
    vertex 0.26 -0.25 0
    vertex 0.22875 -0.25 0.02
  endloop
endfacet
facet normal 0 -1 0
  outer loop
    vertex -0.1775 -0.25 0
    vertex -0.115 -0.25 0
    vertex -0.14625 -0.25 0.02
  endloop
endfacet
facet normal 0 -1 0
  outer loop
    vertex -0.115 -0.25 0
    vertex -0.0525 -0.25 0
    vertex -0.08375 -0.25 0.02
  endloop
endfacet
facet normal 0 -1 0
  outer loop
    vertex -0.0525 -0.25 0
    vertex 0.01 -0.25 0
    vertex -0.02125 -0.25 0.02
  endloop
endfacet
facet normal 0 -1 0
  outer loop
    vertex 0.01 -0.25 0
    vertex 0.0725 -0.25 0
    vertex 0.04125 -0.25 0.02
  endloop
endfacet
facet normal 0 -1 0
  outer loop
    vertex 0.0725 -0.25 0
    vertex 0.135 -0.25 0
    vertex 0.10375 -0.25 0.02
  endloop
endfacet
facet normal 0 -1 0
  outer loop
    vertex 0.135 -0.25 0
    vertex 0.1975 -0.25 0
    vertex 0.16625 -0.25 0.02
  endloop
endfacet
facet normal -0 -1 0
  outer loop
    vertex -0.115 -0.25 0.04
    vertex -0.1775 -0.25 0.04
    vertex -0.14625 -0.25 0.02
  endloop
endfacet
facet normal -0 -1 0
  outer loop
    vertex -0.0525 -0.25 0.04
    vertex -0.115 -0.25 0.04
    vertex -0.08375 -0.25 0.02
  endloop
endfacet
facet normal -0 -1 0
  outer loop
    vertex 0.01 -0.25 0.04
    vertex -0.0525 -0.25 0.04
    vertex -0.02125 -0.25 0.02
  endloop
endfacet
facet normal -0 -1 0
  outer loop
    vertex 0.0725 -0.25 0.04
    vertex 0.01 -0.25 0.04
    vertex 0.04125 -0.25 0.02
  endloop
endfacet
facet normal -0 -1 0
  outer loop
    vertex 0.135 -0.25 0.04
    vertex 0.0725 -0.25 0.04
    vertex 0.10375 -0.25 0.02
  endloop
endfacet
facet normal -0 -1 0
  outer loop
    vertex 0.1975 -0.25 0.04
    vertex 0.135 -0.25 0.04
    vertex 0.16625 -0.25 0.02
  endloop
endfacet
facet normal 0 1 0
  outer loop
    vertex -0.24 0.25 0.04
    vertex -0.20875 0.25 0.02
    vertex -0.24 0.25 0
  endloop
endfacet
facet normal 0 1 0
  outer loop
    vertex -0.1775 0.25 0.04
    vertex -0.14625 0.25 0.02
    vertex -0.1775 0.25 0
  endloop
endfacet
facet normal 0 1 -0
  outer loop
    vertex -0.1775 0.25 0
    vertex -0.20875 0.25 0.02
    vertex -0.1775 0.25 0.04
  endloop
endfacet
facet normal 0 1 -0
  outer loop
    vertex 0.26 0.25 0
    vertex 0.22875 0.25 0.02
    vertex 0.26 0.25 0.04
  endloop
endfacet
facet normal 0 1 -0
  outer loop
    vertex -0.115 0.25 0
    vertex -0.14625 0.25 0.02
    vertex -0.115 0.25 0.04
  endloop
endfacet
facet normal 0 1 -0
  outer loop
    vertex 0.135 0.25 0
    vertex 0.10375 0.25 0.02
    vertex 0.135 0.25 0.04
  endloop
endfacet
facet normal 0 1 0
  outer loop
    vertex -0.115 0.25 0.04
    vertex -0.08375 0.25 0.02
    vertex -0.115 0.25 0
  endloop
endfacet
facet normal 0 1 -0
  outer loop
    vertex -0.0525 0.25 0
    vertex -0.08375 0.25 0.02
    vertex -0.0525 0.25 0.04
  endloop
endfacet
facet normal 0 1 0
  outer loop
    vertex 0.01 0.25 0.04
    vertex 0.04125 0.25 0.02
    vertex 0.01 0.25 0
  endloop
endfacet
facet normal 0 1 0
  outer loop
    vertex 0.135 0.25 0.04
    vertex 0.16625 0.25 0.02
    vertex 0.135 0.25 0
  endloop
endfacet
facet normal 0 1 0
  outer loop
    vertex -0.0525 0.25 0.04
    vertex -0.02125 0.25 0.02
    vertex -0.0525 0.25 0
  endloop
endfacet
facet normal 0 1 -0
  outer loop
    vertex 0.01 0.25 0
    vertex -0.02125 0.25 0.02
    vertex 0.01 0.25 0.04
  endloop
endfacet
facet normal 0 1 -0
  outer loop
    vertex 0.1975 0.25 0
    vertex 0.16625 0.25 0.02
    vertex 0.1975 0.25 0.04
  endloop
endfacet
facet normal 0 1 0
  outer loop
    vertex 0.0725 0.25 0.04
    vertex 0.10375 0.25 0.02
    vertex 0.0725 0.25 0
  endloop
endfacet
facet normal 0 1 -0
  outer loop
    vertex 0.0725 0.25 0
    vertex 0.04125 0.25 0.02
    vertex 0.0725 0.25 0.04
  endloop
endfacet
facet normal 0 1 0
  outer loop
    vertex 0.1975 0.25 0.04
    vertex 0.22875 0.25 0.02
    vertex 0.1975 0.25 0
  endloop
endfacet
facet normal 0 1 0
  outer loop
    vertex -0.1775 0.25 0.04
    vertex -0.20875 0.25 0.02
    vertex -0.24 0.25 0.04
  endloop
endfacet
facet normal 0 1 0
  outer loop
    vertex -0.24 0.25 0
    vertex -0.20875 0.25 0.02
    vertex -0.1775 0.25 0
  endloop
endfacet
facet normal 0 1 0
  outer loop
    vertex 0.26 0.25 0.04
    vertex 0.22875 0.25 0.02
    vertex 0.1975 0.25 0.04
  endloop
endfacet
facet normal 0 1 0
  outer loop
    vertex 0.1975 0.25 0
    vertex 0.22875 0.25 0.02
    vertex 0.26 0.25 0
  endloop
endfacet
facet normal 0 1 0
  outer loop
    vertex -0.1775 0.25 0
    vertex -0.14625 0.25 0.02
    vertex -0.115 0.25 0
  endloop
endfacet
facet normal 0 1 0
  outer loop
    vertex -0.115 0.25 0
    vertex -0.08375 0.25 0.02
    vertex -0.0525 0.25 0
  endloop
endfacet
facet normal 0 1 0
  outer loop
    vertex -0.0525 0.25 0
    vertex -0.02125 0.25 0.02
    vertex 0.01 0.25 0
  endloop
endfacet
facet normal 0 1 0
  outer loop
    vertex 0.01 0.25 0
    vertex 0.04125 0.25 0.02
    vertex 0.0725 0.25 0
  endloop
endfacet
facet normal 0 1 0
  outer loop
    vertex 0.0725 0.25 0
    vertex 0.10375 0.25 0.02
    vertex 0.135 0.25 0
  endloop
endfacet
facet normal 0 1 0
  outer loop
    vertex 0.135 0.25 0
    vertex 0.16625 0.25 0.02
    vertex 0.1975 0.25 0
  endloop
endfacet
facet normal 0 1 0
  outer loop
    vertex -0.115 0.25 0.04
    vertex -0.14625 0.25 0.02
    vertex -0.1775 0.25 0.04
  endloop
endfacet
facet normal 0 1 0
  outer loop
    vertex -0.0525 0.25 0.04
    vertex -0.08375 0.25 0.02
    vertex -0.115 0.25 0.04
  endloop
endfacet
facet normal 0 1 0
  outer loop
    vertex 0.01 0.25 0.04
    vertex -0.02125 0.25 0.02
    vertex -0.0525 0.25 0.04
  endloop
endfacet
facet normal 0 1 0
  outer loop
    vertex 0.0725 0.25 0.04
    vertex 0.04125 0.25 0.02
    vertex 0.01 0.25 0.04
  endloop
endfacet
facet normal 0 1 0
  outer loop
    vertex 0.135 0.25 0.04
    vertex 0.10375 0.25 0.02
    vertex 0.0725 0.25 0.04
  endloop
endfacet
facet normal 0 1 0
  outer loop
    vertex 0.1975 0.25 0.04
    vertex 0.16625 0.25 0.02
    vertex 0.135 0.25 0.04
  endloop
endfacet
facet normal 0 0 -1
  outer loop
    vertex -0.0670523 -0.0346832 0
    vertex -0.131576 -0.00538603 0
    vertex -0.0801673 0.0333732 0
  endloop
endfacet
facet normal 0 0 -1
  outer loop
    vertex -0.0242262 0.0699405 0
    vertex 0.0147432 0.145133 0
    vertex 0.0515977 0.0914408 0
  endloop
endfacet
facet normal 0 0 -1
  outer loop
    vertex 0.10404 -0.0892628 0
    vertex 0.0442262 -0.0699405 0
    vertex 0.0951144 -0.0306426 0
  endloop
endfacet
facet normal 0 0 -1
  outer loop
    vertex 0.0442262 -0.0699405 0
    vertex 0.00922211 -0.145173 0
    vertex -0.0304751 -0.0905554 0
  endloop
endfacet
facet normal 0 0 -1
  outer loop
    vertex -0.0525 0.25 0
    vertex -0.0565995 0.174141 0
    vertex -0.108947 0.196762 0
  endloop
endfacet
facet normal 0 0 -1
  outer loop
    vertex 0.18432 -0.0663514 0
    vertex 0.26 -0.0625 0
    vertex 0.206901 -0.118376 0
  endloop
endfacet
facet normal 0 -0 -1
  outer loop
    vertex -0.0546304 -0.177039 0
    vertex -0.0525 -0.25 0
    vertex -0.109684 -0.195454 0
  endloop
endfacet
facet normal 0 0 -1
  outer loop
    vertex -0.24 -0.0625 0
    vertex -0.164067 -0.0664352 0
    vertex -0.187464 -0.117858 0
  endloop
endfacet
facet normal 0 0 -1
  outer loop
    vertex 0.0783104 0.17552 0
    vertex 0.0725 0.25 0
    vertex 0.124987 0.201212 0
  endloop
endfacet
facet normal 0 0 -1
  outer loop
    vertex 0.0725 -0.25 0
    vertex 0.0796173 -0.173164 0
    vertex 0.127356 -0.200314 0
  endloop
endfacet
facet normal -0 0 -1
  outer loop
    vertex -0.167037 0.0707264 0
    vertex -0.24 0.0625 0
    vertex -0.191465 0.115389 0
  endloop
endfacet
facet normal 0 0 -1
  outer loop
    vertex 0.26 0.0625 0
    vertex 0.183164 0.0696173 0
    vertex 0.210314 0.117356 0
  endloop
endfacet
facet normal 0 0 -1
  outer loop
    vertex 0.15347 0.00212797 0
    vertex 0.183164 0.0696173 0
    vertex 0.216629 0.029329 0
  endloop
endfacet
facet normal 0 0 -1
  outer loop
    vertex 0.00922211 -0.145173 0
    vertex 0.0796173 -0.173164 0
    vertex 0.0390699 -0.206953 0
  endloop
endfacet
facet normal -0 0 -1
  outer loop
    vertex 0.0783104 0.17552 0
    vertex 0.0147432 0.145133 0
    vertex 0.0381092 0.206307 0
  endloop
endfacet
facet normal 0 0 -1
  outer loop
    vertex -0.0525 -0.25 0
    vertex -0.0546304 -0.177039 0
    vertex -0.00828817 -0.202942 0
  endloop
endfacet
facet normal 0 0 -1
  outer loop
    vertex -0.164067 -0.0664352 0
    vertex -0.24 -0.0625 0
    vertex -0.194829 -0.0203095 0
  endloop
endfacet
facet normal 0 0 -1
  outer loop
    vertex -0.0565995 0.174141 0
    vertex -0.0525 0.25 0
    vertex -0.00739808 0.200356 0
  endloop
endfacet
facet normal -0 0 -1
  outer loop
    vertex 0.26 -0.0625 0
    vertex 0.18432 -0.0663514 0
    vertex 0.210204 -0.0176396 0
  endloop
endfacet
facet normal 0 0 -1
  outer loop
    vertex 0.10404 -0.0892628 0
    vertex 0.0951144 -0.0306426 0
    vertex 0.133991 -0.0575852 0
  endloop
endfacet
facet normal 0 0 -1
  outer loop
    vertex 0.108432 0.100212 0
    vertex 0.0799405 0.0342262 0
    vertex 0.0515977 0.0914408 0
  endloop
endfacet
facet normal 0 0 -1
  outer loop
    vertex -0.090935 -0.100439 0
    vertex -0.0670523 -0.0346832 0
    vertex -0.0304751 -0.0905554 0
  endloop
endfacet
facet normal 0 0 -1
  outer loop
    vertex 0.0799405 0.0342262 0
    vertex 0.15347 0.00212797 0
    vertex 0.0951144 -0.0306426 0
  endloop
endfacet
facet normal 0 0 -1
  outer loop
    vertex -0.0895299 0.0935124 0
    vertex -0.0242262 0.0699405 0
    vertex -0.0801673 0.0333732 0
  endloop
endfacet
facet normal 0 0 -1
  outer loop
    vertex -0.0670523 -0.0346832 0
    vertex -0.0801673 0.0333732 0
    vertex -0.0394793 0.0125359 0
  endloop
endfacet
facet normal 0 0 -1
  outer loop
    vertex -0.0242262 0.0699405 0
    vertex 0.0515977 0.0914408 0
    vertex 0.022385 0.0455801 0
  endloop
endfacet
facet normal -0 0 -1
  outer loop
    vertex 0.0442262 -0.0699405 0
    vertex -0.0304751 -0.0905554 0
    vertex -0.00336567 -0.0426104 0
  endloop
endfacet
facet normal 0 -0 -1
  outer loop
    vertex 0.26 -0.0625 0
    vertex 0.26 -0.125 0
    vertex 0.206901 -0.118376 0
  endloop
endfacet
facet normal 0 0 -1
  outer loop
    vertex -0.115 0.25 0
    vertex -0.0525 0.25 0
    vertex -0.108947 0.196762 0
  endloop
endfacet
facet normal 0 0 -1
  outer loop
    vertex -0.0525 -0.25 0
    vertex -0.115 -0.25 0
    vertex -0.109684 -0.195454 0
  endloop
endfacet
facet normal 0 0 -1
  outer loop
    vertex -0.24 -0.125 0
    vertex -0.24 -0.0625 0
    vertex -0.187464 -0.117858 0
  endloop
endfacet
facet normal 0 0 -1
  outer loop
    vertex 0.0725 0.25 0
    vertex 0.135 0.25 0
    vertex 0.124987 0.201212 0
  endloop
endfacet
facet normal 0 0 -1
  outer loop
    vertex -0.24 0.0625 0
    vertex -0.24 0.125 0
    vertex -0.191465 0.115389 0
  endloop
endfacet
facet normal 0 0 -1
  outer loop
    vertex 0.135 -0.25 0
    vertex 0.0725 -0.25 0
    vertex 0.127356 -0.200314 0
  endloop
endfacet
facet normal 0 -0 -1
  outer loop
    vertex 0.26 0.125 0
    vertex 0.26 0.0625 0
    vertex 0.210314 0.117356 0
  endloop
endfacet
facet normal 0 0 -1
  outer loop
    vertex -0.131576 -0.00538603 0
    vertex -0.194531 0.0308418 0
    vertex -0.128018 0.0472293 0
  endloop
endfacet
facet normal 0 0 -1
  outer loop
    vertex -0.24 0.0625 0
    vertex -0.167037 0.0707264 0
    vertex -0.194531 0.0308418 0
  endloop
endfacet
facet normal 0 0 -1
  outer loop
    vertex 0.0796173 -0.173164 0
    vertex 0.0725 -0.25 0
    vertex 0.0390699 -0.206953 0
  endloop
endfacet
facet normal 0 -0 -1
  outer loop
    vertex 0.0725 0.25 0
    vertex 0.0783104 0.17552 0
    vertex 0.0381092 0.206307 0
  endloop
endfacet
facet normal 0 0 -1
  outer loop
    vertex 0.183164 0.0696173 0
    vertex 0.26 0.0625 0
    vertex 0.216629 0.029329 0
  endloop
endfacet
facet normal 0 0 -1
  outer loop
    vertex 0.0799405 0.0342262 0
    vertex 0.108432 0.100212 0
    vertex 0.132755 0.0558272 0
  endloop
endfacet
facet normal 0 0 -1
  outer loop
    vertex 0.00922211 -0.145173 0
    vertex 0.0442262 -0.0699405 0
    vertex 0.0659401 -0.122961 0
  endloop
endfacet
facet normal 0 0 -1
  outer loop
    vertex -0.131576 -0.00538603 0
    vertex -0.0670523 -0.0346832 0
    vertex -0.114281 -0.0557904 0
  endloop
endfacet
facet normal 0 0 -1
  outer loop
    vertex -0.0242262 0.0699405 0
    vertex -0.0895299 0.0935124 0
    vertex -0.0452769 0.122636 0
  endloop
endfacet
facet normal 0 0 -1
  outer loop
    vertex 0.15347 0.00212797 0
    vertex 0.0799405 0.0342262 0
    vertex 0.132755 0.0558272 0
  endloop
endfacet
facet normal 0 0 -1
  outer loop
    vertex 0.0147432 0.145133 0
    vertex -0.0242262 0.0699405 0
    vertex -0.0452769 0.122636 0
  endloop
endfacet
facet normal 0 0 -1
  outer loop
    vertex -0.0670523 -0.0346832 0
    vertex -0.090935 -0.100439 0
    vertex -0.114281 -0.0557904 0
  endloop
endfacet
facet normal 0 0 -1
  outer loop
    vertex 0.0442262 -0.0699405 0
    vertex 0.10404 -0.0892628 0
    vertex 0.0659401 -0.122961 0
  endloop
endfacet
facet normal -0 0 -1
  outer loop
    vertex 0.00922211 -0.145173 0
    vertex -0.0546304 -0.177039 0
    vertex -0.0558525 -0.129388 0
  endloop
endfacet
facet normal 0 0 -1
  outer loop
    vertex 0.0147432 0.145133 0
    vertex 0.0783104 0.17552 0
    vertex 0.0766344 0.128522 0
  endloop
endfacet
facet normal 0 0 -1
  outer loop
    vertex 0.0147432 0.145133 0
    vertex -0.0565995 0.174141 0
    vertex -0.00739808 0.200356 0
  endloop
endfacet
facet normal 0 0 -1
  outer loop
    vertex 0.18432 -0.0663514 0
    vertex 0.15347 0.00212797 0
    vertex 0.210204 -0.0176396 0
  endloop
endfacet
facet normal 0 0 -1
  outer loop
    vertex -0.0546304 -0.177039 0
    vertex 0.00922211 -0.145173 0
    vertex -0.00828817 -0.202942 0
  endloop
endfacet
facet normal 0 0 -1
  outer loop
    vertex -0.131576 -0.00538603 0
    vertex -0.164067 -0.0664352 0
    vertex -0.194829 -0.0203095 0
  endloop
endfacet
facet normal 0 -0 -1
  outer loop
    vertex 0.15347 0.00212797 0
    vertex 0.18432 -0.0663514 0
    vertex 0.133991 -0.0575852 0
  endloop
endfacet
facet normal 0 0 -1
  outer loop
    vertex -0.0565995 0.174141 0
    vertex 0.0147432 0.145133 0
    vertex -0.0452769 0.122636 0
  endloop
endfacet
facet normal 0 0 -1
  outer loop
    vertex 0.183164 0.0696173 0
    vertex 0.15347 0.00212797 0
    vertex 0.132755 0.0558272 0
  endloop
endfacet
facet normal 0 0 -1
  outer loop
    vertex -0.164067 -0.0664352 0
    vertex -0.131576 -0.00538603 0
    vertex -0.114281 -0.0557904 0
  endloop
endfacet
facet normal 0 0 -1
  outer loop
    vertex 0.0796173 -0.173164 0
    vertex 0.00922211 -0.145173 0
    vertex 0.0659401 -0.122961 0
  endloop
endfacet
facet normal 0 0 -1
  outer loop
    vertex 0.0442262 -0.0699405 0
    vertex -0.00336567 -0.0426104 0
    vertex 0.0550189 -0.00342122 0
  endloop
endfacet
facet normal 0 0 -1
  outer loop
    vertex 0.210204 -0.0176396 0
    vertex 0.15347 0.00212797 0
    vertex 0.216629 0.029329 0
  endloop
endfacet
facet normal 0 0 -1
  outer loop
    vertex 0.0147432 0.145133 0
    vertex -0.00739808 0.200356 0
    vertex 0.0381092 0.206307 0
  endloop
endfacet
facet normal -0 0 -1
  outer loop
    vertex -0.131576 -0.00538603 0
    vertex -0.194829 -0.0203095 0
    vertex -0.194531 0.0308418 0
  endloop
endfacet
facet normal 0 0 -1
  outer loop
    vertex -0.00828817 -0.202942 0
    vertex 0.00922211 -0.145173 0
    vertex 0.0390699 -0.206953 0
  endloop
endfacet
facet normal 0 0 -1
  outer loop
    vertex 0.0796173 -0.173164 0
    vertex 0.0659401 -0.122961 0
    vertex 0.118847 -0.143418 0
  endloop
endfacet
facet normal 0 0 -1
  outer loop
    vertex 0.0659401 -0.122961 0
    vertex 0.10404 -0.0892628 0
    vertex 0.118847 -0.143418 0
  endloop
endfacet
facet normal -0 0 -1
  outer loop
    vertex 0.183164 0.0696173 0
    vertex 0.132755 0.0558272 0
    vertex 0.154912 0.109857 0
  endloop
endfacet
facet normal 0 -0 -1
  outer loop
    vertex -0.0565995 0.174141 0
    vertex -0.0452769 0.122636 0
    vertex -0.0994136 0.143643 0
  endloop
endfacet
facet normal 0 0 -1
  outer loop
    vertex -0.24 -0.0625 0
    vertex -0.24 2.77556e-16 0
    vertex -0.194829 -0.0203095 0
  endloop
endfacet
facet normal 0 0 -1
  outer loop
    vertex 0.01 -0.25 0
    vertex -0.0525 -0.25 0
    vertex -0.00828817 -0.202942 0
  endloop
endfacet
facet normal 0 -0 -1
  outer loop
    vertex 0.26 2.77556e-16 0
    vertex 0.26 -0.0625 0
    vertex 0.210204 -0.0176396 0
  endloop
endfacet
facet normal 0 0 -1
  outer loop
    vertex -0.0525 0.25 0
    vertex 0.01 0.25 0
    vertex -0.00739808 0.200356 0
  endloop
endfacet
facet normal 0 0 -1
  outer loop
    vertex -0.00336567 -0.0426104 0
    vertex 0.00888491 0.00227867 0
    vertex 0.0550189 -0.00342122 0
  endloop
endfacet
facet normal 0 0 -1
  outer loop
    vertex 0.132755 0.0558272 0
    vertex 0.108432 0.100212 0
    vertex 0.154912 0.109857 0
  endloop
endfacet
facet normal -0 0 -1
  outer loop
    vertex -0.0452769 0.122636 0
    vertex -0.0895299 0.0935124 0
    vertex -0.0994136 0.143643 0
  endloop
endfacet
facet normal 0 0 -1
  outer loop
    vertex -0.194531 0.0308418 0
    vertex -0.167037 0.0707264 0
    vertex -0.128018 0.0472293 0
  endloop
endfacet
facet normal 0 0 -1
  outer loop
    vertex -0.0670523 -0.0346832 0
    vertex -0.0394793 0.0125359 0
    vertex -0.00336567 -0.0426104 0
  endloop
endfacet
facet normal 0 0 -1
  outer loop
    vertex -0.0394793 0.0125359 0
    vertex -0.0242262 0.0699405 0
    vertex 0.022385 0.0455801 0
  endloop
endfacet
facet normal 0 0 -1
  outer loop
    vertex -0.0394793 0.0125359 0
    vertex 0.00888491 0.00227867 0
    vertex -0.00336567 -0.0426104 0
  endloop
endfacet
facet normal 0 0 -1
  outer loop
    vertex 0.00888491 0.00227867 0
    vertex -0.0394793 0.0125359 0
    vertex 0.022385 0.0455801 0
  endloop
endfacet
facet normal 0 0 -1
  outer loop
    vertex -0.138249 0.105467 0
    vertex -0.0895299 0.0935124 0
    vertex -0.128018 0.0472293 0
  endloop
endfacet
facet normal 0 -0 -1
  outer loop
    vertex 0.26 -0.1875 0
    vertex 0.26 -0.25 0
    vertex 0.211442 -0.201442 0
  endloop
endfacet
facet normal 0 0 -1
  outer loop
    vertex 0.26 -0.25 0
    vertex 0.1975 -0.25 0
    vertex 0.211442 -0.201442 0
  endloop
endfacet
facet normal 0 0 -1
  outer loop
    vertex -0.24 0.1875 0
    vertex -0.24 0.25 0
    vertex -0.191442 0.201442 0
  endloop
endfacet
facet normal 0 0 -1
  outer loop
    vertex -0.24 0.25 0
    vertex -0.1775 0.25 0
    vertex -0.191442 0.201442 0
  endloop
endfacet
facet normal 0 -0 -1
  outer loop
    vertex 0.26 0.25 0
    vertex 0.26 0.1875 0
    vertex 0.211442 0.201442 0
  endloop
endfacet
facet normal 0 0 -1
  outer loop
    vertex 0.1975 0.25 0
    vertex 0.26 0.25 0
    vertex 0.211442 0.201442 0
  endloop
endfacet
facet normal 0 0 -1
  outer loop
    vertex -0.24 -0.25 0
    vertex -0.24 -0.1875 0
    vertex -0.191442 -0.201442 0
  endloop
endfacet
facet normal 0 0 -1
  outer loop
    vertex -0.1775 -0.25 0
    vertex -0.24 -0.25 0
    vertex -0.191442 -0.201442 0
  endloop
endfacet
facet normal 0 0 -1
  outer loop
    vertex 0.0515977 0.0914408 0
    vertex 0.0147432 0.145133 0
    vertex 0.0766344 0.128522 0
  endloop
endfacet
facet normal 0 -0 -1
  outer loop
    vertex -0.0895299 0.0935124 0
    vertex -0.0801673 0.0333732 0
    vertex -0.128018 0.0472293 0
  endloop
endfacet
facet normal 0 -0 -1
  outer loop
    vertex -0.0304751 -0.0905554 0
    vertex 0.00922211 -0.145173 0
    vertex -0.0558525 -0.129388 0
  endloop
endfacet
facet normal -0 0 -1
  outer loop
    vertex 0.0951144 -0.0306426 0
    vertex 0.0442262 -0.0699405 0
    vertex 0.0550189 -0.00342122 0
  endloop
endfacet
facet normal 0 0 -1
  outer loop
    vertex 0.0951144 -0.0306426 0
    vertex 0.15347 0.00212797 0
    vertex 0.133991 -0.0575852 0
  endloop
endfacet
facet normal 0 0 -1
  outer loop
    vertex -0.0304751 -0.0905554 0
    vertex -0.0670523 -0.0346832 0
    vertex -0.00336567 -0.0426104 0
  endloop
endfacet
facet normal 0 -0 -1
  outer loop
    vertex 0.0515977 0.0914408 0
    vertex 0.0799405 0.0342262 0
    vertex 0.022385 0.0455801 0
  endloop
endfacet
facet normal 0 0 -1
  outer loop
    vertex -0.0801673 0.0333732 0
    vertex -0.0242262 0.0699405 0
    vertex -0.0394793 0.0125359 0
  endloop
endfacet
facet normal 0 0 -1
  outer loop
    vertex -0.167037 0.0707264 0
    vertex -0.138249 0.105467 0
    vertex -0.128018 0.0472293 0
  endloop
endfacet
facet normal 0 -0 -1
  outer loop
    vertex -0.114281 -0.0557904 0
    vertex -0.090935 -0.100439 0
    vertex -0.137873 -0.109207 0
  endloop
endfacet
facet normal 0 0 -1
  outer loop
    vertex -0.164067 -0.0664352 0
    vertex -0.114281 -0.0557904 0
    vertex -0.137873 -0.109207 0
  endloop
endfacet
facet normal 0 0 -1
  outer loop
    vertex 0.022385 0.0455801 0
    vertex 0.0799405 0.0342262 0
    vertex 0.0550189 -0.00342122 0
  endloop
endfacet
facet normal 0 0 -1
  outer loop
    vertex 0.0725 -0.25 0
    vertex 0.01 -0.25 0
    vertex 0.0390699 -0.206953 0
  endloop
endfacet
facet normal 0 0 -1
  outer loop
    vertex -0.24 2.77556e-16 0
    vertex -0.24 0.0625 0
    vertex -0.194531 0.0308418 0
  endloop
endfacet
facet normal 0 -0 -1
  outer loop
    vertex 0.26 0.0625 0
    vertex 0.26 2.77556e-16 0
    vertex 0.216629 0.029329 0
  endloop
endfacet
facet normal 0 0 -1
  outer loop
    vertex 0.01 0.25 0
    vertex 0.0725 0.25 0
    vertex 0.0381092 0.206307 0
  endloop
endfacet
facet normal -0 0 -1
  outer loop
    vertex 0.108432 0.100212 0
    vertex 0.0515977 0.0914408 0
    vertex 0.0766344 0.128522 0
  endloop
endfacet
facet normal -0 0 -1
  outer loop
    vertex -0.0801673 0.0333732 0
    vertex -0.131576 -0.00538603 0
    vertex -0.128018 0.0472293 0
  endloop
endfacet
facet normal 0 0 -1
  outer loop
    vertex -0.090935 -0.100439 0
    vertex -0.0304751 -0.0905554 0
    vertex -0.0558525 -0.129388 0
  endloop
endfacet
facet normal 0 -0 -1
  outer loop
    vertex 0.0799405 0.0342262 0
    vertex 0.0951144 -0.0306426 0
    vertex 0.0550189 -0.00342122 0
  endloop
endfacet
facet normal 0 0 -1
  outer loop
    vertex -0.0546304 -0.177039 0
    vertex -0.101335 -0.146043 0
    vertex -0.0558525 -0.129388 0
  endloop
endfacet
facet normal 0 0 -1
  outer loop
    vertex 0.00888491 0.00227867 0
    vertex 0.022385 0.0455801 0
    vertex 0.0550189 -0.00342122 0
  endloop
endfacet
facet normal 0 0 -1
  outer loop
    vertex -0.24 -0.1875 0
    vertex -0.24 -0.125 0
    vertex -0.202975 -0.15935 0
  endloop
endfacet
facet normal 0 0 -1
  outer loop
    vertex -0.115 -0.25 0
    vertex -0.1775 -0.25 0
    vertex -0.149918 -0.21237 0
  endloop
endfacet
facet normal 0 0 -1
  outer loop
    vertex -0.1775 0.25 0
    vertex -0.115 0.25 0
    vertex -0.149771 0.212631 0
  endloop
endfacet
facet normal 0 -0 -1
  outer loop
    vertex 0.26 -0.125 0
    vertex 0.26 -0.1875 0
    vertex 0.222862 -0.159454 0
  endloop
endfacet
facet normal 0 -0 -1
  outer loop
    vertex 0.26 0.1875 0
    vertex 0.26 0.125 0
    vertex 0.223342 0.159453 0
  endloop
endfacet
facet normal 0 0 -1
  outer loop
    vertex 0.135 0.25 0
    vertex 0.1975 0.25 0
    vertex 0.168776 0.213724 0
  endloop
endfacet
facet normal 0 0 -1
  outer loop
    vertex -0.24 0.125 0
    vertex -0.24 0.1875 0
    vertex -0.203775 0.158857 0
  endloop
endfacet
facet normal 0 0 -1
  outer loop
    vertex 0.1975 -0.25 0
    vertex 0.135 -0.25 0
    vertex 0.169453 -0.213342 0
  endloop
endfacet
facet normal -0 0 -1
  outer loop
    vertex 0.26 2.77556e-16 0
    vertex 0.210204 -0.0176396 0
    vertex 0.216629 0.029329 0
  endloop
endfacet
facet normal 0 0 -1
  outer loop
    vertex -0.00739808 0.200356 0
    vertex 0.01 0.25 0
    vertex 0.0381092 0.206307 0
  endloop
endfacet
facet normal 0 0 -1
  outer loop
    vertex 0.01 -0.25 0
    vertex -0.00828817 -0.202942 0
    vertex 0.0390699 -0.206953 0
  endloop
endfacet
facet normal 0 0 -1
  outer loop
    vertex -0.194829 -0.0203095 0
    vertex -0.24 2.77556e-16 0
    vertex -0.194531 0.0308418 0
  endloop
endfacet
facet normal 0 0 -1
  outer loop
    vertex 0.210314 0.117356 0
    vertex 0.183164 0.0696173 0
    vertex 0.154912 0.109857 0
  endloop
endfacet
facet normal 0 0 -1
  outer loop
    vertex -0.108947 0.196762 0
    vertex -0.0565995 0.174141 0
    vertex -0.0994136 0.143643 0
  endloop
endfacet
facet normal -0 0 -1
  outer loop
    vertex -0.0546304 -0.177039 0
    vertex -0.109684 -0.195454 0
    vertex -0.101335 -0.146043 0
  endloop
endfacet
facet normal 0 0 -1
  outer loop
    vertex 0.127356 -0.200314 0
    vertex 0.0796173 -0.173164 0
    vertex 0.118847 -0.143418 0
  endloop
endfacet
facet normal 0 -0 -1
  outer loop
    vertex 0.124987 0.201212 0
    vertex 0.174952 0.165966 0
    vertex 0.119747 0.147819 0
  endloop
endfacet
facet normal -0 0 -1
  outer loop
    vertex 0.206901 -0.118376 0
    vertex 0.175966 -0.164952 0
    vertex 0.154011 -0.106658 0
  endloop
endfacet
facet normal 0 0 -1
  outer loop
    vertex -0.155966 -0.164952 0
    vertex -0.187464 -0.117858 0
    vertex -0.137873 -0.109207 0
  endloop
endfacet
facet normal 0 0 -1
  outer loop
    vertex -0.191465 0.115389 0
    vertex -0.155966 0.164952 0
    vertex -0.138249 0.105467 0
  endloop
endfacet
facet normal 0 0 -1
  outer loop
    vertex 0.133991 -0.0575852 0
    vertex 0.18432 -0.0663514 0
    vertex 0.154011 -0.106658 0
  endloop
endfacet
facet normal 0 0 -1
  outer loop
    vertex 0.10404 -0.0892628 0
    vertex 0.133991 -0.0575852 0
    vertex 0.154011 -0.106658 0
  endloop
endfacet
facet normal 0 0 -1
  outer loop
    vertex 0.174952 0.165966 0
    vertex 0.154912 0.109857 0
    vertex 0.119747 0.147819 0
  endloop
endfacet
facet normal 0 0 -1
  outer loop
    vertex 0.175966 -0.164952 0
    vertex 0.118847 -0.143418 0
    vertex 0.154011 -0.106658 0
  endloop
endfacet
facet normal -0 0 -1
  outer loop
    vertex -0.101335 -0.146043 0
    vertex -0.155966 -0.164952 0
    vertex -0.137873 -0.109207 0
  endloop
endfacet
facet normal 0 0 -1
  outer loop
    vertex -0.155966 0.164952 0
    vertex -0.0994136 0.143643 0
    vertex -0.138249 0.105467 0
  endloop
endfacet
facet normal 0 0 -1
  outer loop
    vertex -0.101335 -0.146043 0
    vertex -0.090935 -0.100439 0
    vertex -0.0558525 -0.129388 0
  endloop
endfacet
facet normal 0 0 -1
  outer loop
    vertex 0.174952 0.165966 0
    vertex 0.124987 0.201212 0
    vertex 0.168776 0.213724 0
  endloop
endfacet
facet normal 0 0 -1
  outer loop
    vertex 0.210314 0.117356 0
    vertex 0.174952 0.165966 0
    vertex 0.223342 0.159453 0
  endloop
endfacet
facet normal -0 0 -1
  outer loop
    vertex -0.108947 0.196762 0
    vertex -0.155966 0.164952 0
    vertex -0.149771 0.212631 0
  endloop
endfacet
facet normal 0 0 -1
  outer loop
    vertex -0.155966 0.164952 0
    vertex -0.191465 0.115389 0
    vertex -0.203775 0.158857 0
  endloop
endfacet
facet normal 0 0 -1
  outer loop
    vertex 0.175966 -0.164952 0
    vertex 0.206901 -0.118376 0
    vertex 0.222862 -0.159454 0
  endloop
endfacet
facet normal 0 0 -1
  outer loop
    vertex 0.127356 -0.200314 0
    vertex 0.175966 -0.164952 0
    vertex 0.169453 -0.213342 0
  endloop
endfacet
facet normal 0 0 -1
  outer loop
    vertex -0.155966 -0.164952 0
    vertex -0.109684 -0.195454 0
    vertex -0.149918 -0.21237 0
  endloop
endfacet
facet normal 0 -0 -1
  outer loop
    vertex -0.187464 -0.117858 0
    vertex -0.155966 -0.164952 0
    vertex -0.202975 -0.15935 0
  endloop
endfacet
facet normal 0 -0 -1
  outer loop
    vertex 0.174952 0.165966 0
    vertex 0.210314 0.117356 0
    vertex 0.154912 0.109857 0
  endloop
endfacet
facet normal -0 0 -1
  outer loop
    vertex 0.175966 -0.164952 0
    vertex 0.127356 -0.200314 0
    vertex 0.118847 -0.143418 0
  endloop
endfacet
facet normal 0 0 -1
  outer loop
    vertex -0.155966 0.164952 0
    vertex -0.108947 0.196762 0
    vertex -0.0994136 0.143643 0
  endloop
endfacet
facet normal 0 0 -1
  outer loop
    vertex -0.109684 -0.195454 0
    vertex -0.155966 -0.164952 0
    vertex -0.101335 -0.146043 0
  endloop
endfacet
facet normal 0 0 -1
  outer loop
    vertex 0.124987 0.201212 0
    vertex 0.135 0.25 0
    vertex 0.168776 0.213724 0
  endloop
endfacet
facet normal -0 0 -1
  outer loop
    vertex 0.26 0.125 0
    vertex 0.210314 0.117356 0
    vertex 0.223342 0.159453 0
  endloop
endfacet
facet normal 0 -0 -1
  outer loop
    vertex -0.115 0.25 0
    vertex -0.108947 0.196762 0
    vertex -0.149771 0.212631 0
  endloop
endfacet
facet normal 0 0 -1
  outer loop
    vertex -0.109684 -0.195454 0
    vertex -0.115 -0.25 0
    vertex -0.149918 -0.21237 0
  endloop
endfacet
facet normal 0 0 -1
  outer loop
    vertex 0.206901 -0.118376 0
    vertex 0.26 -0.125 0
    vertex 0.222862 -0.159454 0
  endloop
endfacet
facet normal 0 0 -1
  outer loop
    vertex -0.191465 0.115389 0
    vertex -0.24 0.125 0
    vertex -0.203775 0.158857 0
  endloop
endfacet
facet normal 0 0 -1
  outer loop
    vertex -0.24 -0.125 0
    vertex -0.187464 -0.117858 0
    vertex -0.202975 -0.15935 0
  endloop
endfacet
facet normal 0 0 -1
  outer loop
    vertex 0.135 -0.25 0
    vertex 0.127356 -0.200314 0
    vertex 0.169453 -0.213342 0
  endloop
endfacet
facet normal 0 -0 -1
  outer loop
    vertex 0.18432 -0.0663514 0
    vertex 0.206901 -0.118376 0
    vertex 0.154011 -0.106658 0
  endloop
endfacet
facet normal 0 0 -1
  outer loop
    vertex -0.167037 0.0707264 0
    vertex -0.191465 0.115389 0
    vertex -0.138249 0.105467 0
  endloop
endfacet
facet normal 0 0 -1
  outer loop
    vertex -0.187464 -0.117858 0
    vertex -0.164067 -0.0664352 0
    vertex -0.137873 -0.109207 0
  endloop
endfacet
facet normal 0 0 -1
  outer loop
    vertex 0.0783104 0.17552 0
    vertex 0.124987 0.201212 0
    vertex 0.119747 0.147819 0
  endloop
endfacet
facet normal 0 -0 -1
  outer loop
    vertex -0.191442 0.201442 0
    vertex -0.155966 0.164952 0
    vertex -0.203775 0.158857 0
  endloop
endfacet
facet normal 0 0 -1
  outer loop
    vertex -0.155966 0.164952 0
    vertex -0.191442 0.201442 0
    vertex -0.149771 0.212631 0
  endloop
endfacet
facet normal 0 -0 -1
  outer loop
    vertex 0.175966 -0.164952 0
    vertex 0.211442 -0.201442 0
    vertex 0.169453 -0.213342 0
  endloop
endfacet
facet normal 0 0 -1
  outer loop
    vertex 0.211442 -0.201442 0
    vertex 0.175966 -0.164952 0
    vertex 0.222862 -0.159454 0
  endloop
endfacet
facet normal -0 0 -1
  outer loop
    vertex -0.155966 -0.164952 0
    vertex -0.191442 -0.201442 0
    vertex -0.202975 -0.15935 0
  endloop
endfacet
facet normal 0 0 -1
  outer loop
    vertex -0.191442 -0.201442 0
    vertex -0.155966 -0.164952 0
    vertex -0.149918 -0.21237 0
  endloop
endfacet
facet normal 0 0 -1
  outer loop
    vertex 0.174952 0.165966 0
    vertex 0.211442 0.201442 0
    vertex 0.223342 0.159453 0
  endloop
endfacet
facet normal -0 0 -1
  outer loop
    vertex 0.211442 0.201442 0
    vertex 0.174952 0.165966 0
    vertex 0.168776 0.213724 0
  endloop
endfacet
facet normal -0 0 -1
  outer loop
    vertex 0.154912 0.109857 0
    vertex 0.108432 0.100212 0
    vertex 0.119747 0.147819 0
  endloop
endfacet
facet normal 0 0 -1
  outer loop
    vertex 0.118847 -0.143418 0
    vertex 0.10404 -0.0892628 0
    vertex 0.154011 -0.106658 0
  endloop
endfacet
facet normal 0 0 -1
  outer loop
    vertex -0.090935 -0.100439 0
    vertex -0.101335 -0.146043 0
    vertex -0.137873 -0.109207 0
  endloop
endfacet
facet normal 0 -0 -1
  outer loop
    vertex -0.0994136 0.143643 0
    vertex -0.0895299 0.0935124 0
    vertex -0.138249 0.105467 0
  endloop
endfacet
facet normal 0 0 -1
  outer loop
    vertex -0.24 0.1875 0
    vertex -0.191442 0.201442 0
    vertex -0.203775 0.158857 0
  endloop
endfacet
facet normal 0 0 -1
  outer loop
    vertex 0.211442 0.201442 0
    vertex 0.26 0.1875 0
    vertex 0.223342 0.159453 0
  endloop
endfacet
facet normal 0 0 -1
  outer loop
    vertex 0.211442 -0.201442 0
    vertex 0.1975 -0.25 0
    vertex 0.169453 -0.213342 0
  endloop
endfacet
facet normal 0 0 -1
  outer loop
    vertex -0.1775 -0.25 0
    vertex -0.191442 -0.201442 0
    vertex -0.149918 -0.21237 0
  endloop
endfacet
facet normal 0 -0 -1
  outer loop
    vertex 0.1975 0.25 0
    vertex 0.211442 0.201442 0
    vertex 0.168776 0.213724 0
  endloop
endfacet
facet normal 0 0 -1
  outer loop
    vertex -0.191442 -0.201442 0
    vertex -0.24 -0.1875 0
    vertex -0.202975 -0.15935 0
  endloop
endfacet
facet normal -0 0 -1
  outer loop
    vertex 0.26 -0.1875 0
    vertex 0.211442 -0.201442 0
    vertex 0.222862 -0.159454 0
  endloop
endfacet
facet normal 0 0 -1
  outer loop
    vertex -0.191442 0.201442 0
    vertex -0.1775 0.25 0
    vertex -0.149771 0.212631 0
  endloop
endfacet
facet normal 0 0 -1
  outer loop
    vertex 0.119747 0.147819 0
    vertex 0.108432 0.100212 0
    vertex 0.0766344 0.128522 0
  endloop
endfacet
facet normal 0 -0 -1
  outer loop
    vertex 0.0783104 0.17552 0
    vertex 0.119747 0.147819 0
    vertex 0.0766344 0.128522 0
  endloop
endfacet
facet normal 0 0 1
  outer loop
    vertex -0.0670523 -0.0346832 0.04
    vertex -0.0801673 0.0333732 0.04
    vertex -0.131576 -0.00538603 0.04
  endloop
endfacet
facet normal 0 0 1
  outer loop
    vertex -0.0242262 0.0699405 0.04
    vertex 0.0515977 0.0914408 0.04
    vertex 0.0147432 0.145133 0.04
  endloop
endfacet
facet normal 0 0 1
  outer loop
    vertex 0.10404 -0.0892628 0.04
    vertex 0.0951144 -0.0306426 0.04
    vertex 0.0442262 -0.0699405 0.04
  endloop
endfacet
facet normal 0 0 1
  outer loop
    vertex 0.0442262 -0.0699405 0.04
    vertex -0.0304751 -0.0905554 0.04
    vertex 0.00922211 -0.145173 0.04
  endloop
endfacet
facet normal 0 0 1
  outer loop
    vertex -0.0525 0.25 0.04
    vertex -0.108947 0.196762 0.04
    vertex -0.0565995 0.174141 0.04
  endloop
endfacet
facet normal -0 0 1
  outer loop
    vertex 0.18432 -0.0663514 0.04
    vertex 0.206901 -0.118376 0.04
    vertex 0.26 -0.0625 0.04
  endloop
endfacet
facet normal 0 0 1
  outer loop
    vertex -0.0546304 -0.177039 0.04
    vertex -0.109684 -0.195454 0.04
    vertex -0.0525 -0.25 0.04
  endloop
endfacet
facet normal 0 0 1
  outer loop
    vertex -0.24 -0.0625 0.04
    vertex -0.187464 -0.117858 0.04
    vertex -0.164067 -0.0664352 0.04
  endloop
endfacet
facet normal 0 -0 1
  outer loop
    vertex 0.0783104 0.17552 0.04
    vertex 0.124987 0.201212 0.04
    vertex 0.0725 0.25 0.04
  endloop
endfacet
facet normal 0 0 1
  outer loop
    vertex 0.0725 -0.25 0.04
    vertex 0.127356 -0.200314 0.04
    vertex 0.0796173 -0.173164 0.04
  endloop
endfacet
facet normal 0 0 1
  outer loop
    vertex -0.167037 0.0707264 0.04
    vertex -0.191465 0.115389 0.04
    vertex -0.24 0.0625 0.04
  endloop
endfacet
facet normal 0 0 1
  outer loop
    vertex 0.26 0.0625 0.04
    vertex 0.210314 0.117356 0.04
    vertex 0.183164 0.0696173 0.04
  endloop
endfacet
facet normal 0 0 1
  outer loop
    vertex 0.15347 0.00212797 0.04
    vertex 0.216629 0.029329 0.04
    vertex 0.183164 0.0696173 0.04
  endloop
endfacet
facet normal 0 0 1
  outer loop
    vertex 0.00922211 -0.145173 0.04
    vertex 0.0390699 -0.206953 0.04
    vertex 0.0796173 -0.173164 0.04
  endloop
endfacet
facet normal 0 0 1
  outer loop
    vertex 0.0783104 0.17552 0.04
    vertex 0.0381092 0.206307 0.04
    vertex 0.0147432 0.145133 0.04
  endloop
endfacet
facet normal 0 -0 1
  outer loop
    vertex -0.0525 -0.25 0.04
    vertex -0.00828817 -0.202942 0.04
    vertex -0.0546304 -0.177039 0.04
  endloop
endfacet
facet normal 0 0 1
  outer loop
    vertex -0.164067 -0.0664352 0.04
    vertex -0.194829 -0.0203095 0.04
    vertex -0.24 -0.0625 0.04
  endloop
endfacet
facet normal 0 0 1
  outer loop
    vertex -0.0565995 0.174141 0.04
    vertex -0.00739808 0.200356 0.04
    vertex -0.0525 0.25 0.04
  endloop
endfacet
facet normal 0 0 1
  outer loop
    vertex 0.26 -0.0625 0.04
    vertex 0.210204 -0.0176396 0.04
    vertex 0.18432 -0.0663514 0.04
  endloop
endfacet
facet normal 0 -0 1
  outer loop
    vertex 0.10404 -0.0892628 0.04
    vertex 0.133991 -0.0575852 0.04
    vertex 0.0951144 -0.0306426 0.04
  endloop
endfacet
facet normal 0 0 1
  outer loop
    vertex 0.108432 0.100212 0.04
    vertex 0.0515977 0.0914408 0.04
    vertex 0.0799405 0.0342262 0.04
  endloop
endfacet
facet normal 0 0 1
  outer loop
    vertex -0.090935 -0.100439 0.04
    vertex -0.0304751 -0.0905554 0.04
    vertex -0.0670523 -0.0346832 0.04
  endloop
endfacet
facet normal 0 0 1
  outer loop
    vertex 0.0799405 0.0342262 0.04
    vertex 0.0951144 -0.0306426 0.04
    vertex 0.15347 0.00212797 0.04
  endloop
endfacet
facet normal 0 0 1
  outer loop
    vertex -0.0895299 0.0935124 0.04
    vertex -0.0801673 0.0333732 0.04
    vertex -0.0242262 0.0699405 0.04
  endloop
endfacet
facet normal 0 -0 1
  outer loop
    vertex -0.0670523 -0.0346832 0.04
    vertex -0.0394793 0.0125359 0.04
    vertex -0.0801673 0.0333732 0.04
  endloop
endfacet
facet normal -0 0 1
  outer loop
    vertex -0.0242262 0.0699405 0.04
    vertex 0.022385 0.0455801 0.04
    vertex 0.0515977 0.0914408 0.04
  endloop
endfacet
facet normal 0 0 1
  outer loop
    vertex 0.0442262 -0.0699405 0.04
    vertex -0.00336567 -0.0426104 0.04
    vertex -0.0304751 -0.0905554 0.04
  endloop
endfacet
facet normal 0 0 1
  outer loop
    vertex 0.26 -0.0625 0.04
    vertex 0.206901 -0.118376 0.04
    vertex 0.26 -0.125 0.04
  endloop
endfacet
facet normal -0 0 1
  outer loop
    vertex -0.115 0.25 0.04
    vertex -0.108947 0.196762 0.04
    vertex -0.0525 0.25 0.04
  endloop
endfacet
facet normal 0 0 1
  outer loop
    vertex -0.0525 -0.25 0.04
    vertex -0.109684 -0.195454 0.04
    vertex -0.115 -0.25 0.04
  endloop
endfacet
facet normal 0 0 1
  outer loop
    vertex -0.24 -0.125 0.04
    vertex -0.187464 -0.117858 0.04
    vertex -0.24 -0.0625 0.04
  endloop
endfacet
facet normal -0 0 1
  outer loop
    vertex 0.0725 0.25 0.04
    vertex 0.124987 0.201212 0.04
    vertex 0.135 0.25 0.04
  endloop
endfacet
facet normal 0 0 1
  outer loop
    vertex -0.24 0.0625 0.04
    vertex -0.191465 0.115389 0.04
    vertex -0.24 0.125 0.04
  endloop
endfacet
facet normal 0 0 1
  outer loop
    vertex 0.135 -0.25 0.04
    vertex 0.127356 -0.200314 0.04
    vertex 0.0725 -0.25 0.04
  endloop
endfacet
facet normal 0 0 1
  outer loop
    vertex 0.26 0.125 0.04
    vertex 0.210314 0.117356 0.04
    vertex 0.26 0.0625 0.04
  endloop
endfacet
facet normal 0 -0 1
  outer loop
    vertex -0.131576 -0.00538603 0.04
    vertex -0.128018 0.0472293 0.04
    vertex -0.194531 0.0308418 0.04
  endloop
endfacet
facet normal -0 0 1
  outer loop
    vertex -0.24 0.0625 0.04
    vertex -0.194531 0.0308418 0.04
    vertex -0.167037 0.0707264 0.04
  endloop
endfacet
facet normal 0 0 1
  outer loop
    vertex 0.0796173 -0.173164 0.04
    vertex 0.0390699 -0.206953 0.04
    vertex 0.0725 -0.25 0.04
  endloop
endfacet
facet normal 0 0 1
  outer loop
    vertex 0.0725 0.25 0.04
    vertex 0.0381092 0.206307 0.04
    vertex 0.0783104 0.17552 0.04
  endloop
endfacet
facet normal 0 0 1
  outer loop
    vertex 0.183164 0.0696173 0.04
    vertex 0.216629 0.029329 0.04
    vertex 0.26 0.0625 0.04
  endloop
endfacet
facet normal 0 0 1
  outer loop
    vertex 0.0799405 0.0342262 0.04
    vertex 0.132755 0.0558272 0.04
    vertex 0.108432 0.100212 0.04
  endloop
endfacet
facet normal 0 0 1
  outer loop
    vertex 0.00922211 -0.145173 0.04
    vertex 0.0659401 -0.122961 0.04
    vertex 0.0442262 -0.0699405 0.04
  endloop
endfacet
facet normal 0 0 1
  outer loop
    vertex -0.131576 -0.00538603 0.04
    vertex -0.114281 -0.0557904 0.04
    vertex -0.0670523 -0.0346832 0.04
  endloop
endfacet
facet normal 0 0 1
  outer loop
    vertex -0.0242262 0.0699405 0.04
    vertex -0.0452769 0.122636 0.04
    vertex -0.0895299 0.0935124 0.04
  endloop
endfacet
facet normal 0 0 1
  outer loop
    vertex 0.15347 0.00212797 0.04
    vertex 0.132755 0.0558272 0.04
    vertex 0.0799405 0.0342262 0.04
  endloop
endfacet
facet normal 0 0 1
  outer loop
    vertex 0.0147432 0.145133 0.04
    vertex -0.0452769 0.122636 0.04
    vertex -0.0242262 0.0699405 0.04
  endloop
endfacet
facet normal 0 0 1
  outer loop
    vertex -0.0670523 -0.0346832 0.04
    vertex -0.114281 -0.0557904 0.04
    vertex -0.090935 -0.100439 0.04
  endloop
endfacet
facet normal 0 0 1
  outer loop
    vertex 0.0442262 -0.0699405 0.04
    vertex 0.0659401 -0.122961 0.04
    vertex 0.10404 -0.0892628 0.04
  endloop
endfacet
facet normal 0 0 1
  outer loop
    vertex 0.00922211 -0.145173 0.04
    vertex -0.0558525 -0.129388 0.04
    vertex -0.0546304 -0.177039 0.04
  endloop
endfacet
facet normal -0 0 1
  outer loop
    vertex 0.0147432 0.145133 0.04
    vertex 0.0766344 0.128522 0.04
    vertex 0.0783104 0.17552 0.04
  endloop
endfacet
facet normal 0 0 1
  outer loop
    vertex 0.0147432 0.145133 0.04
    vertex -0.00739808 0.200356 0.04
    vertex -0.0565995 0.174141 0.04
  endloop
endfacet
facet normal 0 -0 1
  outer loop
    vertex 0.18432 -0.0663514 0.04
    vertex 0.210204 -0.0176396 0.04
    vertex 0.15347 0.00212797 0.04
  endloop
endfacet
facet normal -0 0 1
  outer loop
    vertex -0.0546304 -0.177039 0.04
    vertex -0.00828817 -0.202942 0.04
    vertex 0.00922211 -0.145173 0.04
  endloop
endfacet
facet normal 0 0 1
  outer loop
    vertex -0.131576 -0.00538603 0.04
    vertex -0.194829 -0.0203095 0.04
    vertex -0.164067 -0.0664352 0.04
  endloop
endfacet
facet normal 0 0 1
  outer loop
    vertex 0.15347 0.00212797 0.04
    vertex 0.133991 -0.0575852 0.04
    vertex 0.18432 -0.0663514 0.04
  endloop
endfacet
facet normal 0 0 1
  outer loop
    vertex -0.0565995 0.174141 0.04
    vertex -0.0452769 0.122636 0.04
    vertex 0.0147432 0.145133 0.04
  endloop
endfacet
facet normal 0 0 1
  outer loop
    vertex 0.183164 0.0696173 0.04
    vertex 0.132755 0.0558272 0.04
    vertex 0.15347 0.00212797 0.04
  endloop
endfacet
facet normal 0 0 1
  outer loop
    vertex -0.164067 -0.0664352 0.04
    vertex -0.114281 -0.0557904 0.04
    vertex -0.131576 -0.00538603 0.04
  endloop
endfacet
facet normal 0 0 1
  outer loop
    vertex 0.0796173 -0.173164 0.04
    vertex 0.0659401 -0.122961 0.04
    vertex 0.00922211 -0.145173 0.04
  endloop
endfacet
facet normal 0 -0 1
  outer loop
    vertex 0.0442262 -0.0699405 0.04
    vertex 0.0550189 -0.00342122 0.04
    vertex -0.00336567 -0.0426104 0.04
  endloop
endfacet
facet normal 0 -0 1
  outer loop
    vertex 0.210204 -0.0176396 0.04
    vertex 0.216629 0.029329 0.04
    vertex 0.15347 0.00212797 0.04
  endloop
endfacet
facet normal 0 -0 1
  outer loop
    vertex 0.0147432 0.145133 0.04
    vertex 0.0381092 0.206307 0.04
    vertex -0.00739808 0.200356 0.04
  endloop
endfacet
facet normal 0 0 1
  outer loop
    vertex -0.131576 -0.00538603 0.04
    vertex -0.194531 0.0308418 0.04
    vertex -0.194829 -0.0203095 0.04
  endloop
endfacet
facet normal -0 0 1
  outer loop
    vertex -0.00828817 -0.202942 0.04
    vertex 0.0390699 -0.206953 0.04
    vertex 0.00922211 -0.145173 0.04
  endloop
endfacet
facet normal 0 -0 1
  outer loop
    vertex 0.0796173 -0.173164 0.04
    vertex 0.118847 -0.143418 0.04
    vertex 0.0659401 -0.122961 0.04
  endloop
endfacet
facet normal -0 0 1
  outer loop
    vertex 0.0659401 -0.122961 0.04
    vertex 0.118847 -0.143418 0.04
    vertex 0.10404 -0.0892628 0.04
  endloop
endfacet
facet normal 0 0 1
  outer loop
    vertex 0.183164 0.0696173 0.04
    vertex 0.154912 0.109857 0.04
    vertex 0.132755 0.0558272 0.04
  endloop
endfacet
facet normal 0 0 1
  outer loop
    vertex -0.0565995 0.174141 0.04
    vertex -0.0994136 0.143643 0.04
    vertex -0.0452769 0.122636 0.04
  endloop
endfacet
facet normal 0 0 1
  outer loop
    vertex -0.24 -0.0625 0.04
    vertex -0.194829 -0.0203095 0.04
    vertex -0.24 2.77556e-16 0.04
  endloop
endfacet
facet normal 0 0 1
  outer loop
    vertex 0.01 -0.25 0.04
    vertex -0.00828817 -0.202942 0.04
    vertex -0.0525 -0.25 0.04
  endloop
endfacet
facet normal 0 0 1
  outer loop
    vertex 0.26 2.77556e-16 0.04
    vertex 0.210204 -0.0176396 0.04
    vertex 0.26 -0.0625 0.04
  endloop
endfacet
facet normal -0 0 1
  outer loop
    vertex -0.0525 0.25 0.04
    vertex -0.00739808 0.200356 0.04
    vertex 0.01 0.25 0.04
  endloop
endfacet
facet normal 0 0 1
  outer loop
    vertex -0.00336567 -0.0426104 0.04
    vertex 0.0550189 -0.00342122 0.04
    vertex 0.00888491 0.00227867 0.04
  endloop
endfacet
facet normal 0 -0 1
  outer loop
    vertex 0.132755 0.0558272 0.04
    vertex 0.154912 0.109857 0.04
    vertex 0.108432 0.100212 0.04
  endloop
endfacet
facet normal 0 0 1
  outer loop
    vertex -0.0452769 0.122636 0.04
    vertex -0.0994136 0.143643 0.04
    vertex -0.0895299 0.0935124 0.04
  endloop
endfacet
facet normal 0 0 1
  outer loop
    vertex -0.194531 0.0308418 0.04
    vertex -0.128018 0.0472293 0.04
    vertex -0.167037 0.0707264 0.04
  endloop
endfacet
facet normal -0 0 1
  outer loop
    vertex -0.0670523 -0.0346832 0.04
    vertex -0.00336567 -0.0426104 0.04
    vertex -0.0394793 0.0125359 0.04
  endloop
endfacet
facet normal 0 0 1
  outer loop
    vertex -0.0394793 0.0125359 0.04
    vertex 0.022385 0.0455801 0.04
    vertex -0.0242262 0.0699405 0.04
  endloop
endfacet
facet normal 0 0 1
  outer loop
    vertex -0.0394793 0.0125359 0.04
    vertex -0.00336567 -0.0426104 0.04
    vertex 0.00888491 0.00227867 0.04
  endloop
endfacet
facet normal 0 -0 1
  outer loop
    vertex 0.00888491 0.00227867 0.04
    vertex 0.022385 0.0455801 0.04
    vertex -0.0394793 0.0125359 0.04
  endloop
endfacet
facet normal 0 0 1
  outer loop
    vertex -0.138249 0.105467 0.04
    vertex -0.128018 0.0472293 0.04
    vertex -0.0895299 0.0935124 0.04
  endloop
endfacet
facet normal 0 0 1
  outer loop
    vertex 0.26 -0.1875 0.04
    vertex 0.211442 -0.201442 0.04
    vertex 0.26 -0.25 0.04
  endloop
endfacet
facet normal 0 0 1
  outer loop
    vertex 0.26 -0.25 0.04
    vertex 0.211442 -0.201442 0.04
    vertex 0.1975 -0.25 0.04
  endloop
endfacet
facet normal 0 0 1
  outer loop
    vertex -0.24 0.1875 0.04
    vertex -0.191442 0.201442 0.04
    vertex -0.24 0.25 0.04
  endloop
endfacet
facet normal -0 0 1
  outer loop
    vertex -0.24 0.25 0.04
    vertex -0.191442 0.201442 0.04
    vertex -0.1775 0.25 0.04
  endloop
endfacet
facet normal 0 0 1
  outer loop
    vertex 0.26 0.25 0.04
    vertex 0.211442 0.201442 0.04
    vertex 0.26 0.1875 0.04
  endloop
endfacet
facet normal -0 0 1
  outer loop
    vertex 0.1975 0.25 0.04
    vertex 0.211442 0.201442 0.04
    vertex 0.26 0.25 0.04
  endloop
endfacet
facet normal 0 0 1
  outer loop
    vertex -0.24 -0.25 0.04
    vertex -0.191442 -0.201442 0.04
    vertex -0.24 -0.1875 0.04
  endloop
endfacet
facet normal 0 0 1
  outer loop
    vertex -0.1775 -0.25 0.04
    vertex -0.191442 -0.201442 0.04
    vertex -0.24 -0.25 0.04
  endloop
endfacet
facet normal 0 -0 1
  outer loop
    vertex 0.0515977 0.0914408 0.04
    vertex 0.0766344 0.128522 0.04
    vertex 0.0147432 0.145133 0.04
  endloop
endfacet
facet normal 0 0 1
  outer loop
    vertex -0.0895299 0.0935124 0.04
    vertex -0.128018 0.0472293 0.04
    vertex -0.0801673 0.0333732 0.04
  endloop
endfacet
facet normal 0 0 1
  outer loop
    vertex -0.0304751 -0.0905554 0.04
    vertex -0.0558525 -0.129388 0.04
    vertex 0.00922211 -0.145173 0.04
  endloop
endfacet
facet normal 0 0 1
  outer loop
    vertex 0.0951144 -0.0306426 0.04
    vertex 0.0550189 -0.00342122 0.04
    vertex 0.0442262 -0.0699405 0.04
  endloop
endfacet
facet normal -0 0 1
  outer loop
    vertex 0.0951144 -0.0306426 0.04
    vertex 0.133991 -0.0575852 0.04
    vertex 0.15347 0.00212797 0.04
  endloop
endfacet
facet normal 0 -0 1
  outer loop
    vertex -0.0304751 -0.0905554 0.04
    vertex -0.00336567 -0.0426104 0.04
    vertex -0.0670523 -0.0346832 0.04
  endloop
endfacet
facet normal 0 0 1
  outer loop
    vertex 0.0515977 0.0914408 0.04
    vertex 0.022385 0.0455801 0.04
    vertex 0.0799405 0.0342262 0.04
  endloop
endfacet
facet normal -0 0 1
  outer loop
    vertex -0.0801673 0.0333732 0.04
    vertex -0.0394793 0.0125359 0.04
    vertex -0.0242262 0.0699405 0.04
  endloop
endfacet
facet normal -0 0 1
  outer loop
    vertex -0.167037 0.0707264 0.04
    vertex -0.128018 0.0472293 0.04
    vertex -0.138249 0.105467 0.04
  endloop
endfacet
facet normal 0 0 1
  outer loop
    vertex -0.114281 -0.0557904 0.04
    vertex -0.137873 -0.109207 0.04
    vertex -0.090935 -0.100439 0.04
  endloop
endfacet
facet normal -0 0 1
  outer loop
    vertex -0.164067 -0.0664352 0.04
    vertex -0.137873 -0.109207 0.04
    vertex -0.114281 -0.0557904 0.04
  endloop
endfacet
facet normal 0 0 1
  outer loop
    vertex 0.022385 0.0455801 0.04
    vertex 0.0550189 -0.00342122 0.04
    vertex 0.0799405 0.0342262 0.04
  endloop
endfacet
facet normal 0 0 1
  outer loop
    vertex 0.0725 -0.25 0.04
    vertex 0.0390699 -0.206953 0.04
    vertex 0.01 -0.25 0.04
  endloop
endfacet
facet normal 0 0 1
  outer loop
    vertex -0.24 2.77556e-16 0.04
    vertex -0.194531 0.0308418 0.04
    vertex -0.24 0.0625 0.04
  endloop
endfacet
facet normal 0 0 1
  outer loop
    vertex 0.26 0.0625 0.04
    vertex 0.216629 0.029329 0.04
    vertex 0.26 2.77556e-16 0.04
  endloop
endfacet
facet normal -0 0 1
  outer loop
    vertex 0.01 0.25 0.04
    vertex 0.0381092 0.206307 0.04
    vertex 0.0725 0.25 0.04
  endloop
endfacet
facet normal 0 0 1
  outer loop
    vertex 0.108432 0.100212 0.04
    vertex 0.0766344 0.128522 0.04
    vertex 0.0515977 0.0914408 0.04
  endloop
endfacet
facet normal 0 0 1
  outer loop
    vertex -0.0801673 0.0333732 0.04
    vertex -0.128018 0.0472293 0.04
    vertex -0.131576 -0.00538603 0.04
  endloop
endfacet
facet normal -0 0 1
  outer loop
    vertex -0.090935 -0.100439 0.04
    vertex -0.0558525 -0.129388 0.04
    vertex -0.0304751 -0.0905554 0.04
  endloop
endfacet
facet normal 0 0 1
  outer loop
    vertex 0.0799405 0.0342262 0.04
    vertex 0.0550189 -0.00342122 0.04
    vertex 0.0951144 -0.0306426 0.04
  endloop
endfacet
facet normal 0 0 1
  outer loop
    vertex -0.0546304 -0.177039 0.04
    vertex -0.0558525 -0.129388 0.04
    vertex -0.101335 -0.146043 0.04
  endloop
endfacet
facet normal -0 0 1
  outer loop
    vertex 0.00888491 0.00227867 0.04
    vertex 0.0550189 -0.00342122 0.04
    vertex 0.022385 0.0455801 0.04
  endloop
endfacet
facet normal 0 0 1
  outer loop
    vertex -0.24 -0.1875 0.04
    vertex -0.202975 -0.15935 0.04
    vertex -0.24 -0.125 0.04
  endloop
endfacet
facet normal 0 0 1
  outer loop
    vertex -0.115 -0.25 0.04
    vertex -0.149918 -0.21237 0.04
    vertex -0.1775 -0.25 0.04
  endloop
endfacet
facet normal -0 0 1
  outer loop
    vertex -0.1775 0.25 0.04
    vertex -0.149771 0.212631 0.04
    vertex -0.115 0.25 0.04
  endloop
endfacet
facet normal 0 0 1
  outer loop
    vertex 0.26 -0.125 0.04
    vertex 0.222862 -0.159454 0.04
    vertex 0.26 -0.1875 0.04
  endloop
endfacet
facet normal 0 0 1
  outer loop
    vertex 0.26 0.1875 0.04
    vertex 0.223342 0.159453 0.04
    vertex 0.26 0.125 0.04
  endloop
endfacet
facet normal -0 0 1
  outer loop
    vertex 0.135 0.25 0.04
    vertex 0.168776 0.213724 0.04
    vertex 0.1975 0.25 0.04
  endloop
endfacet
facet normal 0 0 1
  outer loop
    vertex -0.24 0.125 0.04
    vertex -0.203775 0.158857 0.04
    vertex -0.24 0.1875 0.04
  endloop
endfacet
facet normal 0 0 1
  outer loop
    vertex 0.1975 -0.25 0.04
    vertex 0.169453 -0.213342 0.04
    vertex 0.135 -0.25 0.04
  endloop
endfacet
facet normal 0 0 1
  outer loop
    vertex 0.26 2.77556e-16 0.04
    vertex 0.216629 0.029329 0.04
    vertex 0.210204 -0.0176396 0.04
  endloop
endfacet
facet normal 0 0 1
  outer loop
    vertex -0.00739808 0.200356 0.04
    vertex 0.0381092 0.206307 0.04
    vertex 0.01 0.25 0.04
  endloop
endfacet
facet normal 0 -0 1
  outer loop
    vertex 0.01 -0.25 0.04
    vertex 0.0390699 -0.206953 0.04
    vertex -0.00828817 -0.202942 0.04
  endloop
endfacet
facet normal 0 -0 1
  outer loop
    vertex -0.194829 -0.0203095 0.04
    vertex -0.194531 0.0308418 0.04
    vertex -0.24 2.77556e-16 0.04
  endloop
endfacet
facet normal 0 0 1
  outer loop
    vertex 0.210314 0.117356 0.04
    vertex 0.154912 0.109857 0.04
    vertex 0.183164 0.0696173 0.04
  endloop
endfacet
facet normal 0 0 1
  outer loop
    vertex -0.108947 0.196762 0.04
    vertex -0.0994136 0.143643 0.04
    vertex -0.0565995 0.174141 0.04
  endloop
endfacet
facet normal 0 0 1
  outer loop
    vertex -0.0546304 -0.177039 0.04
    vertex -0.101335 -0.146043 0.04
    vertex -0.109684 -0.195454 0.04
  endloop
endfacet
facet normal 0 0 1
  outer loop
    vertex 0.127356 -0.200314 0.04
    vertex 0.118847 -0.143418 0.04
    vertex 0.0796173 -0.173164 0.04
  endloop
endfacet
facet normal 0 0 1
  outer loop
    vertex 0.124987 0.201212 0.04
    vertex 0.119747 0.147819 0.04
    vertex 0.174952 0.165966 0.04
  endloop
endfacet
facet normal 0 0 1
  outer loop
    vertex 0.206901 -0.118376 0.04
    vertex 0.154011 -0.106658 0.04
    vertex 0.175966 -0.164952 0.04
  endloop
endfacet
facet normal 0 -0 1
  outer loop
    vertex -0.155966 -0.164952 0.04
    vertex -0.137873 -0.109207 0.04
    vertex -0.187464 -0.117858 0.04
  endloop
endfacet
facet normal -0 0 1
  outer loop
    vertex -0.191465 0.115389 0.04
    vertex -0.138249 0.105467 0.04
    vertex -0.155966 0.164952 0.04
  endloop
endfacet
facet normal 0 0 1
  outer loop
    vertex 0.133991 -0.0575852 0.04
    vertex 0.154011 -0.106658 0.04
    vertex 0.18432 -0.0663514 0.04
  endloop
endfacet
facet normal -0 0 1
  outer loop
    vertex 0.10404 -0.0892628 0.04
    vertex 0.154011 -0.106658 0.04
    vertex 0.133991 -0.0575852 0.04
  endloop
endfacet
facet normal 0 0 1
  outer loop
    vertex 0.174952 0.165966 0.04
    vertex 0.119747 0.147819 0.04
    vertex 0.154912 0.109857 0.04
  endloop
endfacet
facet normal 0 0 1
  outer loop
    vertex 0.175966 -0.164952 0.04
    vertex 0.154011 -0.106658 0.04
    vertex 0.118847 -0.143418 0.04
  endloop
endfacet
facet normal 0 0 1
  outer loop
    vertex -0.101335 -0.146043 0.04
    vertex -0.137873 -0.109207 0.04
    vertex -0.155966 -0.164952 0.04
  endloop
endfacet
facet normal 0 0 1
  outer loop
    vertex -0.155966 0.164952 0.04
    vertex -0.138249 0.105467 0.04
    vertex -0.0994136 0.143643 0.04
  endloop
endfacet
facet normal 0 0 1
  outer loop
    vertex -0.101335 -0.146043 0.04
    vertex -0.0558525 -0.129388 0.04
    vertex -0.090935 -0.100439 0.04
  endloop
endfacet
facet normal 0 0 1
  outer loop
    vertex 0.174952 0.165966 0.04
    vertex 0.168776 0.213724 0.04
    vertex 0.124987 0.201212 0.04
  endloop
endfacet
facet normal 0 -0 1
  outer loop
    vertex 0.210314 0.117356 0.04
    vertex 0.223342 0.159453 0.04
    vertex 0.174952 0.165966 0.04
  endloop
endfacet
facet normal 0 0 1
  outer loop
    vertex -0.108947 0.196762 0.04
    vertex -0.149771 0.212631 0.04
    vertex -0.155966 0.164952 0.04
  endloop
endfacet
facet normal 0 0 1
  outer loop
    vertex -0.155966 0.164952 0.04
    vertex -0.203775 0.158857 0.04
    vertex -0.191465 0.115389 0.04
  endloop
endfacet
facet normal 0 0 1
  outer loop
    vertex 0.175966 -0.164952 0.04
    vertex 0.222862 -0.159454 0.04
    vertex 0.206901 -0.118376 0.04
  endloop
endfacet
facet normal -0 0 1
  outer loop
    vertex 0.127356 -0.200314 0.04
    vertex 0.169453 -0.213342 0.04
    vertex 0.175966 -0.164952 0.04
  endloop
endfacet
facet normal 0 0 1
  outer loop
    vertex -0.155966 -0.164952 0.04
    vertex -0.149918 -0.21237 0.04
    vertex -0.109684 -0.195454 0.04
  endloop
endfacet
facet normal 0 0 1
  outer loop
    vertex -0.187464 -0.117858 0.04
    vertex -0.202975 -0.15935 0.04
    vertex -0.155966 -0.164952 0.04
  endloop
endfacet
facet normal 0 0 1
  outer loop
    vertex 0.174952 0.165966 0.04
    vertex 0.154912 0.109857 0.04
    vertex 0.210314 0.117356 0.04
  endloop
endfacet
facet normal 0 0 1
  outer loop
    vertex 0.175966 -0.164952 0.04
    vertex 0.118847 -0.143418 0.04
    vertex 0.127356 -0.200314 0.04
  endloop
endfacet
facet normal -0 0 1
  outer loop
    vertex -0.155966 0.164952 0.04
    vertex -0.0994136 0.143643 0.04
    vertex -0.108947 0.196762 0.04
  endloop
endfacet
facet normal 0 -0 1
  outer loop
    vertex -0.109684 -0.195454 0.04
    vertex -0.101335 -0.146043 0.04
    vertex -0.155966 -0.164952 0.04
  endloop
endfacet
facet normal 0 0 1
  outer loop
    vertex 0.124987 0.201212 0.04
    vertex 0.168776 0.213724 0.04
    vertex 0.135 0.25 0.04
  endloop
endfacet
facet normal 0 0 1
  outer loop
    vertex 0.26 0.125 0.04
    vertex 0.223342 0.159453 0.04
    vertex 0.210314 0.117356 0.04
  endloop
endfacet
facet normal 0 0 1
  outer loop
    vertex -0.115 0.25 0.04
    vertex -0.149771 0.212631 0.04
    vertex -0.108947 0.196762 0.04
  endloop
endfacet
facet normal 0 0 1
  outer loop
    vertex -0.109684 -0.195454 0.04
    vertex -0.149918 -0.21237 0.04
    vertex -0.115 -0.25 0.04
  endloop
endfacet
facet normal 0 0 1
  outer loop
    vertex 0.206901 -0.118376 0.04
    vertex 0.222862 -0.159454 0.04
    vertex 0.26 -0.125 0.04
  endloop
endfacet
facet normal 0 0 1
  outer loop
    vertex -0.191465 0.115389 0.04
    vertex -0.203775 0.158857 0.04
    vertex -0.24 0.125 0.04
  endloop
endfacet
facet normal -0 0 1
  outer loop
    vertex -0.24 -0.125 0.04
    vertex -0.202975 -0.15935 0.04
    vertex -0.187464 -0.117858 0.04
  endloop
endfacet
facet normal 0 -0 1
  outer loop
    vertex 0.135 -0.25 0.04
    vertex 0.169453 -0.213342 0.04
    vertex 0.127356 -0.200314 0.04
  endloop
endfacet
facet normal 0 0 1
  outer loop
    vertex 0.18432 -0.0663514 0.04
    vertex 0.154011 -0.106658 0.04
    vertex 0.206901 -0.118376 0.04
  endloop
endfacet
facet normal 0 -0 1
  outer loop
    vertex -0.167037 0.0707264 0.04
    vertex -0.138249 0.105467 0.04
    vertex -0.191465 0.115389 0.04
  endloop
endfacet
facet normal 0 0 1
  outer loop
    vertex -0.187464 -0.117858 0.04
    vertex -0.137873 -0.109207 0.04
    vertex -0.164067 -0.0664352 0.04
  endloop
endfacet
facet normal -0 0 1
  outer loop
    vertex 0.0783104 0.17552 0.04
    vertex 0.119747 0.147819 0.04
    vertex 0.124987 0.201212 0.04
  endloop
endfacet
facet normal 0 0 1
  outer loop
    vertex -0.191442 0.201442 0.04
    vertex -0.203775 0.158857 0.04
    vertex -0.155966 0.164952 0.04
  endloop
endfacet
facet normal 0 -0 1
  outer loop
    vertex -0.155966 0.164952 0.04
    vertex -0.149771 0.212631 0.04
    vertex -0.191442 0.201442 0.04
  endloop
endfacet
facet normal 0 0 1
  outer loop
    vertex 0.175966 -0.164952 0.04
    vertex 0.169453 -0.213342 0.04
    vertex 0.211442 -0.201442 0.04
  endloop
endfacet
facet normal 0 -0 1
  outer loop
    vertex 0.211442 -0.201442 0.04
    vertex 0.222862 -0.159454 0.04
    vertex 0.175966 -0.164952 0.04
  endloop
endfacet
facet normal 0 0 1
  outer loop
    vertex -0.155966 -0.164952 0.04
    vertex -0.202975 -0.15935 0.04
    vertex -0.191442 -0.201442 0.04
  endloop
endfacet
facet normal -0 0 1
  outer loop
    vertex -0.191442 -0.201442 0.04
    vertex -0.149918 -0.21237 0.04
    vertex -0.155966 -0.164952 0.04
  endloop
endfacet
facet normal -0 0 1
  outer loop
    vertex 0.174952 0.165966 0.04
    vertex 0.223342 0.159453 0.04
    vertex 0.211442 0.201442 0.04
  endloop
endfacet
facet normal 0 0 1
  outer loop
    vertex 0.211442 0.201442 0.04
    vertex 0.168776 0.213724 0.04
    vertex 0.174952 0.165966 0.04
  endloop
endfacet
facet normal 0 0 1
  outer loop
    vertex 0.154912 0.109857 0.04
    vertex 0.119747 0.147819 0.04
    vertex 0.108432 0.100212 0.04
  endloop
endfacet
facet normal 0 -0 1
  outer loop
    vertex 0.118847 -0.143418 0.04
    vertex 0.154011 -0.106658 0.04
    vertex 0.10404 -0.0892628 0.04
  endloop
endfacet
facet normal 0 0 1
  outer loop
    vertex -0.090935 -0.100439 0.04
    vertex -0.137873 -0.109207 0.04
    vertex -0.101335 -0.146043 0.04
  endloop
endfacet
facet normal 0 0 1
  outer loop
    vertex -0.0994136 0.143643 0.04
    vertex -0.138249 0.105467 0.04
    vertex -0.0895299 0.0935124 0.04
  endloop
endfacet
facet normal -0 0 1
  outer loop
    vertex -0.24 0.1875 0.04
    vertex -0.203775 0.158857 0.04
    vertex -0.191442 0.201442 0.04
  endloop
endfacet
facet normal 0 0 1
  outer loop
    vertex 0.211442 0.201442 0.04
    vertex 0.223342 0.159453 0.04
    vertex 0.26 0.1875 0.04
  endloop
endfacet
facet normal 0 0 1
  outer loop
    vertex 0.211442 -0.201442 0.04
    vertex 0.169453 -0.213342 0.04
    vertex 0.1975 -0.25 0.04
  endloop
endfacet
facet normal 0 -0 1
  outer loop
    vertex -0.1775 -0.25 0.04
    vertex -0.149918 -0.21237 0.04
    vertex -0.191442 -0.201442 0.04
  endloop
endfacet
facet normal 0 0 1
  outer loop
    vertex 0.1975 0.25 0.04
    vertex 0.168776 0.213724 0.04
    vertex 0.211442 0.201442 0.04
  endloop
endfacet
facet normal 0 0 1
  outer loop
    vertex -0.191442 -0.201442 0.04
    vertex -0.202975 -0.15935 0.04
    vertex -0.24 -0.1875 0.04
  endloop
endfacet
facet normal 0 0 1
  outer loop
    vertex 0.26 -0.1875 0.04
    vertex 0.222862 -0.159454 0.04
    vertex 0.211442 -0.201442 0.04
  endloop
endfacet
facet normal 0 0 1
  outer loop
    vertex -0.191442 0.201442 0.04
    vertex -0.149771 0.212631 0.04
    vertex -0.1775 0.25 0.04
  endloop
endfacet
facet normal 0 0 1
  outer loop
    vertex 0.119747 0.147819 0.04
    vertex 0.0766344 0.128522 0.04
    vertex 0.108432 0.100212 0.04
  endloop
endfacet
facet normal 0 0 1
  outer loop
    vertex 0.0783104 0.17552 0.04
    vertex 0.0766344 0.128522 0.04
    vertex 0.119747 0.147819 0.04
  endloop
endfacet
endsolid Created by Gmsh
